<svg viewBox="0 0 1039.9999999999998 1013.9999999999998" xmlns="http://www.w3.org/2000/svg" xmlns:blush="http://design.blush" overflow="visible" xmlns:xlink="http://www.w3.org/1999/xlink" width="1039.9999999999998px" height="1013.9999999999998px"><g id="Master/Composition/Mono Comp" stroke="none" stroke-width="1" fill="none" fill-rule="evenodd" blush:i="0"><g id="Mono/Bottom" fill="#000" blush:width="1040" blush:height="1040" blush:component="Mono/Bottom" blush:i="0.0" blush:value="User Interface" transform="scale(1 1)"><g id="Mono/Bottom/User Interface" stroke="none" stroke-width="1" fill="none" fill-rule="evenodd" blush:i="0.0.0"><g id="Ink" transform="translate(1.000000, 284.000000)" fill="#000" blush:i="0.0.0.0"><path d="M52.0192517,407.307536 C55.3952418,421.009716 46.9311943,500.137134 60.5925051,497.382832 C70.8930913,493.001096 88.8592299,496.132586 92.2798418,482.967401 C103.903816,445.192108 121.085551,408.332174 147.231567,379.152323 C178.79678,342.798832 223.985729,320.926576 263.053273,360.720593 C374.064048,463.003415 300.521479,412.223917 385.655143,374.426298 C411.924456,367.743827 448.679887,417.539813 469.203559,433.339446 C491.876121,450.329397 478.621103,460.918888 458.446186,445.53522 C447.652412,436.505012 436.632006,427.743889 425.893422,418.647879 C412.842725,411.061799 397.649008,381.422506 381.89517,397.882513 C362.873374,412.769137 349.977679,457.222201 320.038812,440.857373 C282.191321,418.154361 258.41026,369.142129 214.516517,358.312929 C155.404398,369.325435 129.2302,434.39581 104.867881,482.698316 C102.723687,487.127054 104.126925,489.212756 108.975434,488.993023 C237.549576,480.545636 366.028604,472.599993 494.924493,471.403799 C569.653062,470.768101 538.100765,461.152721 534.487574,385.356551 C529.02258,346.021976 526.665846,306.421841 522.646363,266.970936 C524.65082,250.721262 512.258881,258.972416 502.256557,258.722132 C439.14844,260.179186 376.073202,259.406007 313.016753,263.632638 C227.203194,271.178766 140.925804,269.580707 55.1568675,277.444097 C50.7158259,278.19965 49.425317,279.648479 49.5450913,284.383903 C50.7310913,325.398791 53.9626477,366.251522 52.0192517,407.307536 M163.631246,500.097182 C158.903685,506.826655 149.199622,500.309865 143.383525,503.393179 C117.190539,509.021636 89.2502576,508.331886 62.3550655,511.634933 C48.0455646,513.619581 56.9934061,536.482399 53.7066596,546.734652 C50.205024,596.16285 54.0178378,645.719127 56.4098002,695.117948 C205.75186,695.075647 368.371248,692.073411 521.992301,699.955602 C599.000103,701.472583 567.744893,702.176434 563.360216,606.187144 C558.267462,568.64216 555.657087,530.623633 549.525115,493.224354 C545.897834,474.081723 548.14184,476.020545 529.808159,476.891252 C518.321572,477.436472 506.833812,477.978167 495.343703,478.444659 C405.106717,481.295314 313.488804,489.914257 225.042561,497.393408 C220.430077,499.613064 213.795523,497.829349 208.767353,497.274728 C195.04498,500.251113 176.968462,508.109803 163.502077,500.041955 C164.864216,500.918538 166.200521,501.307477 167.792814,500.85391 C166.457683,500.305165 165.062666,500.151234 163.631246,500.097182 M518.353277,243.861359 C522.372761,234.1132 514.623836,191.95852 513.373252,178.633529 C478.61758,179.618215 443.666982,182.020004 408.90544,183.775519 C287.469608,189.52148 166.125369,197.256791 44.5568457,199.709106 C30.7464042,197.588153 10.6114121,203.953363 0.47522198,193.448475 C-1.90264931,188.400489 5.24857842,187.454579 8.60460614,186.560371 C138.469258,170.806565 269.85105,168.437678 400.431998,160.885675 C431.104776,159.373394 461.775206,157.823512 492.447984,156.29478 C511.578986,155.328895 538.57399,149.682811 544.197509,174.544378 C571.052776,345.227647 573.310873,516.411484 591.882929,687.833855 C593.403592,700.772257 590.729808,719.934863 573.784099,718.987779 C546.210186,716.003168 518.53881,714.503813 490.774668,714.767023 C430.202947,713.495626 369.590127,714.712971 308.996095,714.710621 C222.226691,713.767061 134.490873,719.192236 48.5622378,705.74739 C33.1583289,709.889418 40.9037309,675.76381 37.3022834,666.712451 C35.5573368,640.331553 32.811923,613.963581 32.46082,587.518056 C34.1071289,501.731668 27.71682,416.075709 27.4162101,330.282271 C24.6296972,296.122586 28.2933804,260.501148 19.8187646,227.253297 C15.8556457,205.893359 43.7313428,213.059948 43.5669467,230.463515 C50.2766537,298.613678 52.700321,253.951456 151.678479,255.590642 C217.348826,254.252267 283.724901,244.545234 348.492244,246.823643 C402.555056,239.792184 462.08521,246.615661 518.353277,243.861359" id="Fill-1" blush:i="0.0.0.0.0"/><path d="M97.2625987,0.148816308 C117.042208,1.90054825 143.036021,3.80808002 161.713998,15.1638551 C173.372178,20.6818784 187.976341,38.0271407 164.39014,33.1431549 C134.681428,25.3233584 104.021723,24.6310653 73.9554072,19.595344 C38.9808659,3.41383872 78.5086471,-0.902493814 97.2625987,0.148816308" id="Fill-3" blush:i="0.0.0.0.1"/><path d="M750.301033,588.066337 C769.536459,584.620716 838.887713,716.723111 794.329833,676.302765 C786.641163,665.601398 721.509446,590.104127 750.301033,588.066337" id="Fill-6" blush:i="0.0.0.0.2"/><path d="M689,636.414957 C668.636005,642.515407 655.378103,599.205094 643.642206,585.627264 C639.170599,574.737723 623.475958,561.218905 631.019643,549.408789 C634.561207,547.276517 640.684949,543.59815 643.838676,548.237744 C663.270076,574.985571 675.620899,606.147438 689,636.414957" id="Fill-10" blush:i="0.0.0.0.3"/><path d="M152.342522,108 C139.167194,104.836657 38.7512957,105.223541 52.2441652,84.2006305 C61.8114274,73.1483415 213.995859,107.285135 152.342522,108" id="Fill-20" blush:i="0.0.0.0.4"/><path d="M235.0571,80 C246.541121,81.2092512 308.646442,87.4417477 293.689078,107.153067 C280.622815,112.990786 180.725577,86.9866391 235.0571,80" id="Fill-22" blush:i="0.0.0.0.5"/><path d="M448.742174,200.895877 C457.627676,194.060257 464.664192,207.464058 472.789594,199.967496 C475.966691,197.040974 480.057086,195.616592 484.371386,196.089029 C494.759409,200.412836 472.568046,209.58237 481.145972,215.411851 C484.630645,219.302099 493.051837,221.883424 491.891066,228.054568 C486.95808,234.331746 478.687729,223.601165 473.517875,221.403917 C467.63506,216.274257 463.285407,224.295095 458.213365,226.461711 C454.908995,228.173562 446.189655,228.861601 448.335609,222.880138 C456.605961,212.865871 462.138777,210.220927 448.742174,200.895877" id="Fill-4" blush:i="0.0.0.0.6"/><path d="M111.062588,231.341641 C109.675927,216.105514 131.721542,213.809329 138.413896,225.018413 C148.045826,242.727539 110.644542,251.671712 111.062588,231.341641" id="Fill-6" blush:i="0.0.0.0.7"/><path d="M86.522237,218.269033 C102.75515,218.752454 89.4498755,252.303322 76.0238617,240.47595 C65.1046907,232.220047 73.5313643,215.696065 86.522237,218.269033" id="Fill-8" blush:i="0.0.0.0.8"/><path d="M175,227.557097 C174.765976,235.415912 162.82492,240.877715 157.722034,233.551319 C149.682151,217.939721 172.251392,208.644955 175,227.557097" id="Fill-10" blush:i="0.0.0.0.9"/><path d="M443.618403,347.71341 C477.988409,346.407416 446.632776,314.637635 430.79282,309.244231 C406.928738,305.766286 420.575669,351.110172 443.618403,347.71341 M447.397316,367.784542 C418.685621,369.932962 395.840532,348.98999 399.484526,321.32056 C392.778819,274.648325 457.571861,287.324706 476.665257,312.951608 C496.420229,337.591366 478.812125,370.997759 447.397316,367.784542" id="Fill-12" blush:i="0.0.0.0.10"/><path d="M475.014278,620.454321 C475.029535,620.673983 475.044793,620.893645 475.06005,621.114481 C498.0433,619.613263 513.879126,629.474554 501.980837,597.992426 C484.085286,510.000812 478.430723,530.847546 399.084935,539.181776 C387.582161,545.561368 394.681465,596.672105 392.506724,611.72423 C393.791852,621.248393 395.272976,628.742739 406.306297,627.061797 C429.233213,625.324472 452.109662,622.568714 475.014278,620.454321 M367.085839,562.48473 C366.373444,539.602305 369.606802,521.988242 395.506529,520.636206 C421.362832,519.327632 450.443103,512.163365 474.960291,522.494522 C479.015192,526.508343 483.511379,527.141486 488.953514,526.856043 C511.365205,520.632682 524.816209,615.961237 518.394091,630.177002 C516.443513,635.87529 509.83244,634.686531 505.038151,634.801648 C481.040882,633.843124 457.460253,638.034319 433.739962,640.499936 C362.765697,655.932651 369.2864,618.603053 367.085839,562.48473" id="Fill-14" blush:i="0.0.0.0.11"/><path d="M136,577.801799 C139.638435,558.838831 150.448944,538.541867 169.165101,531.109607 C188.697256,521.170518 193.699221,566.734578 210.8399,555.596775 C255.567924,493.395416 245.51454,556.2226 266.031074,548.145693 C275.567542,540.078197 294.226002,514.622882 305.475713,531.87189 C306.225773,541.068694 314.20207,552.744095 309.553351,561.018631 C302.924099,562.712593 298.28009,555.381501 295.574225,550.358431 C284.628305,544.008425 268.758134,583.610678 251.13233,564.882983 C245.953742,561.806794 242.110424,546.802287 235.01371,552.822911 C195.352413,615.138378 182.66499,536.74909 167.329398,555.508548 C159.097586,562.586723 146.566769,598.118761 136,577.801799" id="Fill-16" blush:i="0.0.0.0.12"/><path d="M263.916542,605.69348 C273.926624,607.482815 297.067302,600.407522 299,613.35323 C298.67338,615.952936 296.808826,617.387102 292.326612,617.597282 C248.098968,617.483762 204.009961,623.032725 159.784666,621.82897 C142.742854,606.919714 253.091085,607.0692 263.909493,605 L263.916542,605.69348 Z" id="Fill-18" blush:i="0.0.0.0.13"/><path d="M231.848418,642 C311.215681,643.636354 193.169042,660.536624 174.50551,653.133801 C168.143075,642.896071 223.7909,642.311578 231.848418,642.076189 C231.848418,642.050034 231.848418,642.025017 231.848418,642" id="Fill-20" blush:i="0.0.0.0.14"/><path d="M472.978219,592.660083 C474.336689,618.626708 411.624752,597.224748 432.119426,586.358573 C444.83024,593.215322 456.734205,594.211082 468.192404,584.197269 C473.440452,582.804581 472.354851,589.119857 472.978219,592.660083" id="Fill-22" blush:i="0.0.0.0.15"/><path d="M451.005859,558.416148 C452.043494,535.087645 484.933463,561.595455 471.985475,568.549623 C461.90694,573.120442 450.706859,572.121814 451.005859,558.416148" id="Fill-24" blush:i="0.0.0.0.16"/><path d="M414.093799,561.407482 C412.612585,550.711063 429.138407,552.664035 430.897642,560.512322 C432.586787,572.18807 412.79248,573.774789 414.093799,561.407482" id="Fill-26" blush:i="0.0.0.0.17"/></g></g></g><g id="Mono/Top" fill="#000" blush:width="1040" blush:height="1040" blush:component="Mono/Top" blush:i="0.1" blush:value="Banana" transform="scale(1 1)"><g id="Mono/Top/Banana" stroke="none" stroke-width="1" fill="none" fill-rule="evenodd" blush:i="0.1.0"><g id="Ink" transform="translate(174.000000, 0.000000)" fill="#000" blush:i="0.1.0.0"><path d="M644.055655,128.186839 C658.684408,123.685398 663.341703,121.208072 645.812421,114.98137 C639.846872,114.027879 641.238468,124.245889 644.055655,128.186839 M657.809315,183.594418 C655.02393,179.92386 648.568197,183.137925 644.342966,182.626696 C640.091416,182.962771 638.521073,184.899311 638.232665,189.932781 C640.229589,197.265139 655.182938,187.360216 657.809315,183.594418 M651.809771,174.972494 C662.277993,177.89646 675.049092,167.60401 663.393243,166.109733 C657.027433,167.223052 650.236138,167.914908 644.117065,169.873341 C637.869688,175.528606 647.493521,175.990573 651.809771,174.972494 M641.793352,155.950838 C641.078363,167.34347 661.180288,155.380495 668.627354,157.815126 C673.540159,157.728644 673.915199,146.697266 667.558161,148.449895 C659.912609,149.340987 652.520373,152.475138 644.57106,150.935978 C642.636644,150.920652 641.485205,154.505822 641.793352,155.950838 M641.988548,140.208929 C642.394293,151.788756 660.634177,139.871758 667.884951,140.439912 C674.941624,139.167861 670.838116,130.316047 665.523953,130.449602 C658.413546,133.107554 642.01377,129.996393 641.988548,140.208929 M652.569721,345.686819 C624.746578,361.608261 619.186774,399.26514 617.32254,428.832124 C617.496901,439.716811 660.529999,416.745447 663.169535,410.62931 C666.041552,405.260859 668.030799,398.978327 676.317867,403.336361 C692.703387,397.192857 706.851826,383.403908 720.299532,371.986098 C728.015267,360.629591 713.8438,358.601096 732.820604,348.16524 C715.691584,327.463206 685.196007,321.722554 662.451257,336.957613 C661.175902,337.894684 660.169215,341.017887 662.568594,341.499559 C672.512637,340.936879 672.423812,348.630491 674.361518,355.609258 C671.088143,371.747451 647.870755,359.584145 652.569721,345.686819 M781.987032,213.206285 C781.603219,169.507708 778.175222,121.289081 744.940318,89.9158282 C712.693458,63.3352097 679.994795,29.3707821 634.534902,41.259317 C623.149916,43.4213664 636.504411,58.6969296 636.311408,65.7129167 C640.435751,78.1542795 637.413499,94.2464952 644.471269,104.998723 C700.382934,114.442773 693.648663,196.390467 641.226406,204.797828 C623.208036,208.656676 622.755137,274.384072 607.831396,292.054858 C578.886423,337.812581 550.347195,388.711055 500.583116,414.568071 C489.894476,420.984158 479.18171,427.216334 467.426071,429.752774 C465.489461,435.017227 459.432894,432.049472 455.471945,434.231226 C451.962799,435.969623 453.218415,440.895812 453.185517,444.097835 C454.576016,457.474078 456.067403,458.989155 469.339652,458.299489 C514.171188,455.002226 559.756094,451.36232 602.575353,436.941725 C616.913505,435.726598 600.0707,419.484407 605.687527,398.010604 C609.88644,349.828102 656.390304,304.000318 706.810155,317.205787 C721.08251,314.820417 744.838333,345.745934 750.33234,333.944975 C770.174369,297.58861 783.892937,254.249098 781.987032,213.206285 M796.842783,205.6725 C797.642211,306.433855 737.131371,400.868888 641.615701,436.419549 C610.050931,451.030624 575.94203,461.154489 541.046861,465.909902 C504.170121,471.371403 466.602518,481.448196 429.380346,472.328179 C420.118393,470.213202 419.927584,458.093683 418.269512,450.564278 C414.040991,419.660655 460.711539,425.104641 478.162961,409.29486 C528.738531,384.610277 542.197203,357.369549 573.313461,314.473394 C607.33244,268.544897 618.788705,205.511578 622.778166,149.559929 C622.006154,121.869276 623.252997,94.1545397 619.912729,66.6149566 C615.120551,49.1674916 601.804438,14.4827457 624.287099,5.27734144 C689.677845,-8.28828699 653.434944,5.97904962 698.545019,28.9723081 C769.792749,75.9725253 799.448324,118.371682 796.842783,205.6725" id="Fill-1" blush:i="0.1.0.0.0"/><path d="M472.877715,297.717155 C494.679683,299.638257 515.248736,295.989805 535.680677,289.674798 C538.793677,289.172356 542.568107,287.076111 544.670863,290.757402 C540.077049,316.941311 488.227722,312.362411 466.678041,314 C420.916504,311.504209 375.882212,300.522731 331.338233,290.192565 C307.226195,283.539313 288.595363,265.178832 267.68298,252.234655 C249.021434,243.010081 263.024449,219.346045 263.317321,203.550317 C265.782054,190.210973 269.744054,187.089046 283.115255,190.365318 C308.377939,196.554441 333.234772,193.920725 358.169484,189.010148 C407.361024,185.282881 450.246491,161.109835 495.770001,145.149911 C521.270713,131.952871 549.668335,119.414807 567.549986,95.9729835 C574.351857,86.8753887 581.214059,77.0673693 590.326,70.0988591 C595.007566,69.0742714 592.29274,76.3011178 591.454709,78.5068275 C577.961753,108.24067 556.019382,133.843323 527.363988,149.70254 C505.116678,162.564619 517.838515,196.605889 488.34509,206.863808 C456.936479,217.978833 423.686174,193.742298 392.217234,202.604544 C355.77934,207.869787 319.861377,214.25704 282.360588,209.072802 C280.001158,208.89328 278.485243,210.242977 277.841363,212.451971 C266.226298,236.837378 295.436723,240.806561 309.413412,254.319954 C340.498438,275.665531 379.786076,280.916544 415.883931,289.386907 C434.65736,294.528454 453.571192,299.231049 472.877715,297.717155" id="Fill-3" blush:i="0.1.0.0.1"/><path d="M777.948173,880.388688 C776.825059,879.044634 776.073394,878.512933 774.712508,879.969904 C775.786315,881.465246 776.407589,881.856623 777.948173,880.388688 M721.925048,731.500202 C722.242807,733.795837 724.604086,739.601798 727.393792,735.333934 C728.953004,731.155966 722.763275,723.702278 721.925048,731.500202 M698.907235,753.967606 C701.523817,753.629948 703.410649,751.889037 701.911702,749.254648 C694.906757,738.551551 687.886472,727.850646 680.601023,717.335015 C663.721439,705.501642 659.233365,753.609119 698.907235,753.967606 M692.926789,696.079014 C723.40208,692.753961 750.459817,728.917338 730.357718,753.051106 C717.657215,762.764251 736.785218,778.28884 740.969777,788.920678 C754.370446,811.64571 768.954494,835.510887 778.134445,859.937364 C776.048192,867.422845 781.325185,872.367121 784.109413,878.138001 C785.029818,880.043356 788.175634,879.684869 789.261493,877.795958 C793.956658,871.011008 788.234802,864.53302 784.666039,858.752273 C761.632885,824.716798 809.290179,857.448782 796.910722,879.395448 C793.878862,883.52189 794.808033,891.0874 789.108092,892.529023 C780.706103,894.326942 772.107979,895.4627 764.014983,889.855168 C742.207942,875.219672 761.052153,856.959836 759.229969,840.70731 C746.434138,816.448565 731.503842,793.948272 717.480804,770.424042 C709.042655,757.978938 689.565117,768.392614 677.45959,759.461124 C657.833034,751.505335 649.990958,723.8437 666.181333,709.300293 C675.526738,700.170375 661.960615,687.956588 659.93901,677.843296 C658.35131,673.542543 653.829269,674.415191 650.38213,675.646327 C621.359765,685.307947 591.923218,693.888623 563.138624,704.187188 C554.536118,709.339759 572.261598,721.640153 564.439245,728.149934 C558.000788,729.20347 555.238475,720.407921 552.262497,716.077569 C545.471217,701.411377 528.300172,721.210407 517,717.910569 C519.3558,707.107709 535.241565,707.398227 541.98792,700.543114 C544.780913,697.233409 540.284073,693.854638 539.908241,690.271956 C535.648077,668.63883 545.932516,676.684515 551.639031,690.251126 C557.186667,702.612913 577.038942,685.418672 586.993569,684.533965 C606.928023,677.638289 627.060802,671.310493 647.001831,664.436743 C655.217547,659.448616 640.747455,649.199384 638.678733,643.104001 C632.873603,632.870117 616.166047,609.956522 624.738969,600 C633.382017,601.185091 658.119017,665.780797 670.282617,656.587294 C708.627377,643.738754 747.214291,630.911044 786.010489,619.689401 C815.083257,631.900995 673.510611,657.590401 671.428741,671.731469 C676.435091,681.728554 677.547248,700.411559 692.926789,696.079014" id="Fill-5" blush:i="0.1.0.0.2"/><path d="M865.95981,288.569934 C859.125843,380.774508 837.03641,495.876594 749.383029,544.480861 C734.221914,552.172257 682.149262,577.43897 669.00685,566.133968 C668.494495,534.646321 696.889082,508.961514 698.199045,476.514774 C703.060388,463.905011 703.495945,425.017866 720.27641,425.75639 C724.443275,426.652933 725.142141,430.903008 724.366477,434.792052 C717.682816,464.523922 716.308123,496.121305 702.326414,523.656261 C698.72676,529.693935 706.548135,533.208779 708.571226,538.310406 C712.320088,545.194145 712.351905,545.52445 719.417364,541.994243 C733.746861,533.953887 749.925006,528.279438 762.440962,517.474832 C825.016353,458.13619 844.062373,366.436402 850.427868,283.5133 C847.349347,270.350467 837.723208,258.902808 836.366069,244.584455 C833.977637,233.293719 845.88469,228.786861 851.733442,237.774239 C856.379749,254.662609 866.724503,270.786119 865.95981,288.569934" id="Fill-7" blush:i="0.1.0.0.3"/><path d="M136.905778,222.601771 C155.304491,221.64225 172.415789,228.944104 184.723743,242.609271 C189.97455,248.952708 186.014456,261.894646 176.335205,255.213333 C128.305053,222.542146 62.4852632,251.191958 14.028538,271.27675 C-9.96949708,281.625 1.26212865,262.951333 14.8816842,256.997667 C51.5559766,232.669563 93.721848,225.340104 136.905778,222.601771" id="Fill-9" blush:i="0.1.0.0.4"/><path d="M120.269877,157.921448 C122.388851,134.968962 130.857003,116.281134 147.173983,101.303646 C153.002265,93.6695164 175.387516,86.6496017 171.563189,102.704144 C151.912918,131.714928 146.082424,159.450452 148.314203,193.659195 C138.810894,205.841132 117.35463,166.951719 120.269877,157.921448" id="Fill-12" blush:i="0.1.0.0.5"/><path d="M602.623389,492.571738 C616.630751,492.119615 631.228738,493.029348 642.405699,502.579902 C651.12592,509.40345 642.388166,521.487869 633.099235,516.955663 C623.334736,512.957885 612.879894,513.433053 602.737351,511.896712 C555.54647,513.593271 527.324644,567.044766 519,557.961699 C527.036454,520.77786 565.504922,494.765414 602.61024,492 C602.614623,492.190945 602.619006,492.380793 602.623389,492.571738" id="Fill-14" blush:i="0.1.0.0.6"/><path d="M631.173774,857.956781 C593.807894,856.702138 554.626618,827.480194 551.196931,788.98087 C550.690894,784.423389 550.676686,773.074924 557.32184,774.060325 C573.732531,780.973395 575.965434,803.05772 586.772555,816.198221 C588.194487,829.092371 668.34183,859.297537 631.173774,857.956781" id="Fill-16" blush:i="0.1.0.0.7"/><path d="M364.736996,149.992146 C357.395248,147.725605 347.746469,150.465591 338.591742,147.089345 C335.325091,145.884308 330.381297,145.3241 327.762061,146.917962 C322.225626,150.288852 317.232536,148.671425 312.530838,146.832271 C300.464388,146.754077 270.968133,120.801329 298.184743,123.150348 C338.184232,139.128603 381.334253,134.143499 421.373178,125.611837 C444.25945,142.993291 375.353062,150.273856 364.736996,149.992146" id="Fill-18" blush:i="0.1.0.0.8"/><path d="M602,746.980806 C611.738111,720.518394 625.855633,767.664538 631.871573,775.703627 C641.472758,795.169116 664.467406,799.77247 680.548982,811.956009 C682.622575,815.906772 677.023983,816.345868 674.349014,815.819833 C635.83035,814.259337 605.14599,785.901879 602,746.980806" id="Fill-20" blush:i="0.1.0.0.9"/><path d="M192,193.670758 C196.434877,159.579825 208.238133,130.448827 235.773935,109.493126 C240.57701,103.202583 256.327142,102.687862 252.368177,113.329438 C243.586352,123.714748 232.075457,131.506742 224.787311,143.296035 C215.177863,158.065232 209.781272,174.415825 205.637657,191.300853 C204.708916,207.686491 193.396959,212.922405 192,193.670758" id="Fill-22" blush:i="0.1.0.0.10"/><path d="M455.095261,567.13206 C455.230296,556.743278 465.18421,505.409057 479.529004,527.437791 C479.366296,545.72617 468.135076,569.604796 483.498172,584.22848 C487.667681,588.715592 493.343615,594.07008 494,600.494808 C494.006619,601.364377 492.524545,603.10571 492.121651,602.994958 C473.018504,599.124111 453.465975,589.331857 455.095261,567.13206" id="Fill-24" blush:i="0.1.0.0.11"/><path d="M432.372373,371.910829 C400.825426,365.841722 421.229824,353.601093 440.508635,353.589359 C458.229275,353.534951 471.723244,341.548225 487.943466,338 C501.035361,351.645623 447.944265,373.571859 432.372373,371.910829" id="Fill-26" blush:i="0.1.0.0.12"/><path d="M111.079664,284.030913 C50.7658391,290.481576 98.5360646,262.471516 126.808239,266.374922 C134.618488,264.647435 156.312275,278.615005 144.602416,284.279558 C133.441767,281.937514 122.257958,283.107993 111.079664,284.030913" id="Fill-28" blush:i="0.1.0.0.13"/><path d="M389.213799,332.189443 C398.419155,333.783908 400.079703,340.30873 390.849862,344.509809 C375.03014,349.13851 365.802525,382.022287 356.729613,377.59027 C336.678387,373.150518 374.547112,328.753 389.213799,332.189443" id="Fill-30" blush:i="0.1.0.0.14"/><path d="M68.0388288,117.377079 C70.2157786,107.438128 70.7006299,94.4510697 81.8966814,90.5173579 C85.558556,89.0683841 91.2444408,90.6302507 89.7573465,95.6172634 C86.6649281,107.748309 87.8895301,120.072258 87.7094735,132.378671 C80.0711675,148.227507 67.2025417,126.465499 68.0388288,117.377079" id="Fill-32" blush:i="0.1.0.0.15"/><path d="M376.146413,103.777667 C366.302758,105.718392 331.21783,94.5220707 353.008579,87 C371.247221,88.7671551 436.014385,96.1829144 376.146413,103.777667" id="Fill-34" blush:i="0.1.0.0.16"/><path d="M624,549.334828 C616.090556,551.120424 563.314821,573.545246 580.374231,551.046955 C591.264497,543.769349 615.850707,535.814559 624,549.334828" id="Fill-36" blush:i="0.1.0.0.17"/><path d="M336,336.79667 C328.375534,342.564362 323.494865,353.043378 314.493012,357 C299.226519,352.466503 327.03217,328.297024 336,336.79667" id="Fill-38" blush:i="0.1.0.0.18"/><path d="M674.259298,383.936241 C664.056365,385.088096 661.375989,370.266854 670.843734,369.073113 C679.349825,367.81759 684.655875,383.137272 674.259298,383.936241" id="Fill-40" blush:i="0.1.0.0.19"/><path d="M709,363.275317 C708.309868,372.636661 693.738971,376.943946 691.003401,368.39383 C690.745145,359.794818 705.268296,357.296681 709,363.275317" id="Fill-42" blush:i="0.1.0.0.20"/><path d="M697,340.7908 C699.242612,321.275675 716.577606,343.795834 709.17124,350.205181 C702.246131,353.154118 697.254719,347.424534 697,340.7908" id="Fill-44" blush:i="0.1.0.0.21"/><path d="M655,401.146879 C653.444366,408.730628 638.519277,411.174185 638,402.487658 C639.670907,394.622831 651.922764,393.590054 655,401.146879" id="Fill-46" blush:i="0.1.0.0.22"/><path d="M651,377.198277 C650.33241,380.177684 650.541358,387.895335 645.039748,386.914465 C631.603325,384.57951 649.070362,359.695052 651,377.198277" id="Fill-48" blush:i="0.1.0.0.23"/></g></g></g></g></svg>